
mtllib alien3.mtl
o Alien_3
v 0.000000 1.210000 -0.200000
v 0.000000 1.210000 -0.200000
v 0.000000 1.210000 0.200000
v 0.000000 1.210000 0.200000
v 0.200000 1.210000 -0.200000
v 0.200000 1.210000 -0.200000
v 0.200000 1.210000 0.200000
v 0.200000 1.210000 0.200000
v 0.200000 1.210000 0.200000
v 0.200000 1.210000 0.200000
v 0.200000 1.210000 0.200000
v 0.200000 1.610000 0.200000
v 0.200000 1.610000 0.200000
v 0.200000 1.610000 0.200000
v 0.200000 1.210000 -0.200000
v 0.200000 1.210000 -0.200000
v 0.200000 1.210000 -0.200000
v 0.200000 1.610000 -0.200000
v 0.200000 1.610000 -0.200000
v 0.200000 1.610000 -0.200000
v 0.000000 1.210000 -0.200000
v 0.000000 1.210000 -0.200000
v 0.000000 1.610000 -0.200000
v 0.000000 1.610000 -0.200000
v 0.000000 1.210000 0.200000
v 0.000000 1.210000 0.200000
v 0.000000 1.610000 0.200000
v 0.000000 1.610000 0.200000
v 0.000000 0.810000 -0.200000
v 0.000000 0.810000 0.200000
v 0.200000 0.810000 -0.200000
v 0.200000 0.810000 -0.200000
v 0.200000 0.810000 -0.200000
v 0.200000 0.810000 0.200000
v 0.200000 0.810000 0.200000
v 0.200000 0.810000 0.200000
v 0.600000 1.210000 0.200000
v 0.600000 1.210000 0.200000
v 0.600000 1.210000 0.200000
v 0.600000 1.210000 -0.200000
v 0.600000 1.210000 -0.200000
v 0.600000 1.210000 -0.200000
v 0.600000 0.810000 0.200000
v 0.600000 0.810000 0.200000
v 0.600000 0.810000 0.200000
v 0.600000 0.810000 0.200000
v 0.600000 0.810000 -0.200000
v 0.600000 0.810000 -0.200000
v 0.600000 0.810000 -0.200000
v 0.600000 0.810000 -0.200000
v 0.000000 0.410000 -0.200000
v 0.000000 0.410000 0.200000
v 0.200000 0.410000 -0.200000
v 0.200000 0.410000 -0.200000
v 0.200000 0.410000 -0.200000
v 0.200000 0.410000 0.200000
v 0.200000 0.410000 0.200000
v 0.200000 0.410000 0.200000
v 0.600000 0.410000 0.200000
v 0.600000 0.410000 0.200000
v 0.600000 0.410000 0.200000
v 0.600000 0.410000 -0.200000
v 0.600000 0.410000 -0.200000
v 0.600000 0.410000 -0.200000
v 0.600000 0.810000 0.200000
v 0.600000 0.810000 0.200000
v 0.600000 0.810000 0.200000
v 0.600000 0.810000 -0.200000
v 0.600000 0.810000 -0.200000
v 0.600000 0.810000 -0.200000
v 0.600000 0.410000 0.200000
v 0.600000 0.410000 0.200000
v 0.600000 0.410000 0.200000
v 0.600000 0.410000 -0.200000
v 0.600000 0.410000 -0.200000
v 0.600000 0.410000 -0.200000
v 1.000000 0.810000 0.200000
v 1.000000 0.810000 0.200000
v 1.000000 0.810000 0.200000
v 1.000000 0.810000 -0.200000
v 1.000000 0.810000 -0.200000
v 1.000000 0.810000 -0.200000
v 1.000000 0.410000 0.200000
v 1.000000 0.410000 0.200000
v 1.000000 0.410000 0.200000
v 1.000000 0.410000 -0.200000
v 1.000000 0.410000 -0.200000
v 1.000000 0.410000 -0.200000
v 0.000000 0.010000 -0.200000
v 0.000000 0.010000 0.200000
v 0.200000 0.010000 -0.200000
v 0.200000 0.010000 0.200000
v 0.600000 0.010000 0.200000
v 0.600000 0.010000 0.200000
v 0.600000 0.010000 -0.200000
v 0.600000 0.010000 -0.200000
v 0.600000 0.010000 0.200000
v 0.600000 0.010000 0.200000
v 0.600000 0.010000 -0.200000
v 0.600000 0.010000 -0.200000
v 1.000000 0.010000 0.200000
v 1.000000 0.010000 0.200000
v 1.000000 0.010000 0.200000
v 1.000000 0.010000 -0.200000
v 1.000000 0.010000 -0.200000
v 1.000000 0.010000 -0.200000
v 1.000000 0.010000 0.200000
v 1.000000 0.010000 0.200000
v 1.000000 -0.390000 0.200000
v 1.000000 -0.390000 0.200000
v 1.000000 -0.390000 -0.200000
v 1.000000 -0.390000 -0.200000
v 1.000000 0.010000 0.200000
v 0.200000 -0.390000 0.200000
v 0.200000 -0.390000 0.200000
v 0.200000 -0.390000 0.200000
v 0.000000 -0.390000 0.200000
v 0.000000 -0.390000 -0.200000
v 0.200000 -0.390000 -0.200000
v 0.200000 -0.390000 -0.200000
v 0.200000 -0.390000 -0.200000
v 1.000000 0.010000 -0.200000
v 1.000000 -0.390000 0.200000
v 1.000000 -0.390000 0.200000
v 1.000000 -0.390000 0.200000
v 1.000000 -0.390000 0.200000
v 1.000000 -0.390000 0.200000
v 1.000000 -0.390000 0.200000
v 1.000000 -0.390000 0.200000
v 1.000000 -0.390000 -0.200000
v 1.000000 -0.390000 -0.200000
v 1.000000 -0.390000 -0.200000
v 0.600000 -0.390000 -0.200000
v 0.600000 -0.390000 -0.200000
v 0.600000 -0.390000 0.200000
v 0.600000 -0.390000 0.200000
v 0.600000 -0.390000 -0.200000
v 0.600000 -0.390000 -0.200000
v 0.600000 -0.390000 -0.200000
v 0.600000 -0.390000 0.200000
v 0.600000 -0.390000 0.200000
v 0.600000 -0.390000 0.200000
v 1.000000 -0.390000 -0.200000
v 1.000000 -0.390000 -0.200000
v 1.000000 -0.390000 -0.200000
v 1.000000 -0.390000 -0.200000
v 1.000000 0.010000 -0.200000
v 1.000000 0.010000 -0.200000
v 1.400000 0.410000 0.200000
v 1.400000 0.410000 0.200000
v 1.400000 0.410000 0.200000
v 1.400000 0.410000 -0.200000
v 1.400000 0.410000 -0.200000
v 1.400000 0.410000 -0.200000
v 1.400000 0.010000 -0.200000
v 1.400000 0.010000 -0.200000
v 1.400000 0.010000 -0.200000
v 1.400000 0.010000 0.200000
v 1.400000 0.010000 0.200000
v 1.400000 0.010000 0.200000
v 1.400000 0.010000 -0.200000
v 1.400000 0.010000 -0.200000
v 1.400000 0.010000 -0.200000
v 1.400000 0.010000 0.200000
v 1.400000 0.010000 0.200000
v 1.400000 0.010000 0.200000
v 1.400000 -0.390000 -0.200000
v 1.400000 -0.390000 -0.200000
v 1.400000 -0.390000 -0.200000
v 1.400000 -0.390000 0.200000
v 1.400000 -0.390000 0.200000
v 1.400000 -0.390000 0.200000
v 0.200000 -0.790000 -0.200000
v 0.200000 -0.790000 -0.200000
v 0.200000 -0.790000 -0.200000
v 0.000000 -0.790000 -0.200000
v 0.000000 -0.790000 -0.200000
v 0.000000 -0.790000 0.200000
v 0.000000 -0.790000 0.200000
v 0.200000 -0.790000 0.200000
v 0.200000 -0.790000 0.200000
v 0.200000 -0.790000 0.200000
v 1.000000 -0.790000 -0.200000
v 1.000000 -0.790000 0.200000
v 1.000000 -0.790000 0.200000
v 1.000000 -0.790000 0.200000
v 1.000000 -0.790000 0.200000
v 1.000000 -0.790000 0.200000
v 1.000000 -0.790000 0.200000
v 0.600000 -0.790000 0.200000
v 0.600000 -0.790000 0.200000
v 0.600000 -0.790000 0.200000
v 0.600000 -0.790000 -0.200000
v 0.600000 -0.790000 -0.200000
v 0.600000 -0.790000 -0.200000
v 1.000000 -0.790000 -0.200000
v 1.000000 -0.790000 -0.200000
v 1.000000 -0.790000 -0.200000
v 1.000000 -0.790000 -0.200000
v 1.000000 -0.790000 -0.200000
v 0.600000 -1.190000 0.200000
v 0.600000 -1.190000 0.200000
v 0.600000 -1.190000 0.200000
v 1.000000 -1.190000 0.200000
v 1.000000 -1.190000 0.200000
v 1.000000 -1.190000 0.200000
v 1.000000 -1.190000 0.200000
v 1.000000 -1.190000 0.200000
v 0.600000 -1.190000 -0.200000
v 0.600000 -1.190000 -0.200000
v 0.600000 -1.190000 -0.200000
v 1.000000 -1.190000 -0.200000
v 1.000000 -1.190000 -0.200000
v 1.000000 -1.190000 -0.200000
v 1.000000 -1.190000 -0.200000
v 1.000000 -1.190000 -0.200000
v 1.400000 -0.790000 -0.200000
v 1.400000 -0.790000 -0.200000
v 1.400000 -0.790000 -0.200000
v 1.400000 -0.790000 0.200000
v 1.400000 -0.790000 0.200000
v 1.400000 -0.790000 0.200000
v 1.400000 -1.190000 -0.200000
v 1.400000 -1.190000 -0.200000
v 1.400000 -1.190000 -0.200000
v 1.400000 -1.190000 0.200000
v 1.400000 -1.190000 0.200000
v 1.400000 -1.190000 0.200000
v 1.000000 -1.190000 -0.200000
v 1.000000 -1.190000 -0.200000
v 1.000000 -1.190000 -0.200000
v 1.000000 -1.190000 -0.200000
v 1.000000 -1.190000 0.200000
v 1.000000 -1.190000 0.200000
v 1.000000 -1.190000 0.200000
v 1.000000 -1.190000 0.200000
v 1.400000 -1.190000 -0.200000
v 1.400000 -1.190000 -0.200000
v 1.400000 -1.190000 0.200000
v 1.400000 -1.190000 0.200000
v 1.000000 -1.590000 -0.200000
v 1.000000 -1.590000 -0.200000
v 1.000000 -1.590000 -0.200000
v 1.000000 -1.590000 0.200000
v 1.000000 -1.590000 0.200000
v 1.000000 -1.590000 0.200000
v 0.600000 -1.590000 0.200000
v 0.600000 -1.590000 0.200000
v 0.600000 -1.590000 0.200000
v 0.600000 -1.590000 -0.200000
v 0.600000 -1.590000 -0.200000
v 0.600000 -1.590000 -0.200000
v -0.200000 1.210000 -0.200000
v -0.200000 1.210000 -0.200000
v -0.200000 1.210000 0.200000
v -0.200000 1.210000 0.200000
v -0.200000 1.210000 0.200000
v -0.200000 1.210000 0.200000
v -0.200000 1.210000 0.200000
v -0.200000 1.610000 0.200000
v -0.200000 1.610000 0.200000
v -0.200000 1.610000 0.200000
v -0.200000 1.210000 -0.200000
v -0.200000 1.210000 -0.200000
v -0.200000 1.210000 -0.200000
v -0.200000 1.610000 -0.200000
v -0.200000 1.610000 -0.200000
v -0.200000 1.610000 -0.200000
v -0.200000 0.810000 -0.200000
v -0.200000 0.810000 -0.200000
v -0.200000 0.810000 -0.200000
v -0.200000 0.810000 0.200000
v -0.200000 0.810000 0.200000
v -0.200000 0.810000 0.200000
v -0.600000 1.210000 0.200000
v -0.600000 1.210000 0.200000
v -0.600000 1.210000 0.200000
v -0.600000 1.210000 -0.200000
v -0.600000 1.210000 -0.200000
v -0.600000 1.210000 -0.200000
v -0.600000 0.810000 0.200000
v -0.600000 0.810000 0.200000
v -0.600000 0.810000 0.200000
v -0.600000 0.810000 0.200000
v -0.600000 0.810000 -0.200000
v -0.600000 0.810000 -0.200000
v -0.600000 0.810000 -0.200000
v -0.600000 0.810000 -0.200000
v -0.200000 0.410000 -0.200000
v -0.200000 0.410000 -0.200000
v -0.200000 0.410000 -0.200000
v -0.200000 0.410000 0.200000
v -0.200000 0.410000 0.200000
v -0.200000 0.410000 0.200000
v -0.600000 0.410000 0.200000
v -0.600000 0.410000 0.200000
v -0.600000 0.410000 0.200000
v -0.600000 0.410000 -0.200000
v -0.600000 0.410000 -0.200000
v -0.600000 0.410000 -0.200000
v -0.600000 0.810000 0.200000
v -0.600000 0.810000 0.200000
v -0.600000 0.810000 0.200000
v -0.600000 0.810000 -0.200000
v -0.600000 0.810000 -0.200000
v -0.600000 0.810000 -0.200000
v -0.600000 0.410000 0.200000
v -0.600000 0.410000 0.200000
v -0.600000 0.410000 0.200000
v -0.600000 0.410000 -0.200000
v -0.600000 0.410000 -0.200000
v -0.600000 0.410000 -0.200000
v -1.000000 0.810000 0.200000
v -1.000000 0.810000 0.200000
v -1.000000 0.810000 0.200000
v -1.000000 0.810000 -0.200000
v -1.000000 0.810000 -0.200000
v -1.000000 0.810000 -0.200000
v -1.000000 0.410000 0.200000
v -1.000000 0.410000 0.200000
v -1.000000 0.410000 0.200000
v -1.000000 0.410000 -0.200000
v -1.000000 0.410000 -0.200000
v -1.000000 0.410000 -0.200000
v -0.200000 0.010000 -0.200000
v -0.200000 0.010000 0.200000
v -0.600000 0.010000 0.200000
v -0.600000 0.010000 0.200000
v -0.600000 0.010000 -0.200000
v -0.600000 0.010000 -0.200000
v -0.600000 0.010000 0.200000
v -0.600000 0.010000 0.200000
v -0.600000 0.010000 -0.200000
v -0.600000 0.010000 -0.200000
v -1.000000 0.010000 0.200000
v -1.000000 0.010000 0.200000
v -1.000000 0.010000 0.200000
v -1.000000 0.010000 -0.200000
v -1.000000 0.010000 -0.200000
v -1.000000 0.010000 -0.200000
v -1.000000 0.010000 0.200000
v -1.000000 0.010000 0.200000
v -1.000000 -0.390000 0.200000
v -1.000000 -0.390000 0.200000
v -1.000000 -0.390000 -0.200000
v -1.000000 -0.390000 -0.200000
v -1.000000 0.010000 0.200000
v -0.200000 -0.390000 0.200000
v -0.200000 -0.390000 0.200000
v -0.200000 -0.390000 0.200000
v -0.200000 -0.390000 -0.200000
v -0.200000 -0.390000 -0.200000
v -0.200000 -0.390000 -0.200000
v -1.000000 0.010000 -0.200000
v -1.000000 -0.390000 0.200000
v -1.000000 -0.390000 0.200000
v -1.000000 -0.390000 0.200000
v -1.000000 -0.390000 0.200000
v -1.000000 -0.390000 0.200000
v -1.000000 -0.390000 0.200000
v -1.000000 -0.390000 0.200000
v -1.000000 -0.390000 -0.200000
v -1.000000 -0.390000 -0.200000
v -1.000000 -0.390000 -0.200000
v -0.600000 -0.390000 -0.200000
v -0.600000 -0.390000 -0.200000
v -0.600000 -0.390000 0.200000
v -0.600000 -0.390000 0.200000
v -0.600000 -0.390000 -0.200000
v -0.600000 -0.390000 -0.200000
v -0.600000 -0.390000 -0.200000
v -0.600000 -0.390000 0.200000
v -0.600000 -0.390000 0.200000
v -0.600000 -0.390000 0.200000
v -1.000000 -0.390000 -0.200000
v -1.000000 -0.390000 -0.200000
v -1.000000 -0.390000 -0.200000
v -1.000000 -0.390000 -0.200000
v -1.000000 0.010000 -0.200000
v -1.000000 0.010000 -0.200000
v -1.400000 0.410000 0.200000
v -1.400000 0.410000 0.200000
v -1.400000 0.410000 0.200000
v -1.400000 0.410000 -0.200000
v -1.400000 0.410000 -0.200000
v -1.400000 0.410000 -0.200000
v -1.400000 0.010000 -0.200000
v -1.400000 0.010000 -0.200000
v -1.400000 0.010000 -0.200000
v -1.400000 0.010000 0.200000
v -1.400000 0.010000 0.200000
v -1.400000 0.010000 0.200000
v -1.400000 0.010000 -0.200000
v -1.400000 0.010000 -0.200000
v -1.400000 0.010000 -0.200000
v -1.400000 0.010000 0.200000
v -1.400000 0.010000 0.200000
v -1.400000 0.010000 0.200000
v -1.400000 -0.390000 -0.200000
v -1.400000 -0.390000 -0.200000
v -1.400000 -0.390000 -0.200000
v -1.400000 -0.390000 0.200000
v -1.400000 -0.390000 0.200000
v -1.400000 -0.390000 0.200000
v -0.200000 -0.790000 -0.200000
v -0.200000 -0.790000 -0.200000
v -0.200000 -0.790000 -0.200000
v -0.200000 -0.790000 0.200000
v -0.200000 -0.790000 0.200000
v -0.200000 -0.790000 0.200000
v -1.000000 -0.790000 -0.200000
v -1.000000 -0.790000 0.200000
v -1.000000 -0.790000 0.200000
v -1.000000 -0.790000 0.200000
v -1.000000 -0.790000 0.200000
v -1.000000 -0.790000 0.200000
v -1.000000 -0.790000 0.200000
v -0.600000 -0.790000 0.200000
v -0.600000 -0.790000 0.200000
v -0.600000 -0.790000 0.200000
v -0.600000 -0.790000 -0.200000
v -0.600000 -0.790000 -0.200000
v -0.600000 -0.790000 -0.200000
v -1.000000 -0.790000 -0.200000
v -1.000000 -0.790000 -0.200000
v -1.000000 -0.790000 -0.200000
v -1.000000 -0.790000 -0.200000
v -1.000000 -0.790000 -0.200000
v -0.600000 -1.190000 0.200000
v -0.600000 -1.190000 0.200000
v -0.600000 -1.190000 0.200000
v -1.000000 -1.190000 0.200000
v -1.000000 -1.190000 0.200000
v -1.000000 -1.190000 0.200000
v -1.000000 -1.190000 0.200000
v -1.000000 -1.190000 0.200000
v -0.600000 -1.190000 -0.200000
v -0.600000 -1.190000 -0.200000
v -0.600000 -1.190000 -0.200000
v -1.000000 -1.190000 -0.200000
v -1.000000 -1.190000 -0.200000
v -1.000000 -1.190000 -0.200000
v -1.000000 -1.190000 -0.200000
v -1.000000 -1.190000 -0.200000
v -1.400000 -0.790000 -0.200000
v -1.400000 -0.790000 -0.200000
v -1.400000 -0.790000 -0.200000
v -1.400000 -0.790000 0.200000
v -1.400000 -0.790000 0.200000
v -1.400000 -0.790000 0.200000
v -1.400000 -1.190000 -0.200000
v -1.400000 -1.190000 -0.200000
v -1.400000 -1.190000 -0.200000
v -1.400000 -1.190000 0.200000
v -1.400000 -1.190000 0.200000
v -1.400000 -1.190000 0.200000
v -1.000000 -1.190000 -0.200000
v -1.000000 -1.190000 -0.200000
v -1.000000 -1.190000 -0.200000
v -1.000000 -1.190000 -0.200000
v -1.000000 -1.190000 0.200000
v -1.000000 -1.190000 0.200000
v -1.000000 -1.190000 0.200000
v -1.000000 -1.190000 0.200000
v -1.400000 -1.190000 -0.200000
v -1.400000 -1.190000 -0.200000
v -1.400000 -1.190000 0.200000
v -1.400000 -1.190000 0.200000
v -1.000000 -1.590000 -0.200000
v -1.000000 -1.590000 -0.200000
v -1.000000 -1.590000 -0.200000
v -1.000000 -1.590000 0.200000
v -1.000000 -1.590000 0.200000
v -1.000000 -1.590000 0.200000
v -0.600000 -1.590000 0.200000
v -0.600000 -1.590000 0.200000
v -0.600000 -1.590000 0.200000
v -0.600000 -1.590000 -0.200000
v -0.600000 -1.590000 -0.200000
v -0.600000 -1.590000 -0.200000
vn -0.0000 -0.0000 -1.0000
vn 1.0000 -0.0000 -0.0000
vn -0.0000 -0.0000 -0.0000
vn -0.0000 1.0000 -0.0000
vn -0.0000 -0.0000 1.0000
vn -1.0000 -0.0000 -0.0000
vn -0.0000 -1.0000 -0.0000
vt 0.375000 0.375000
vt 0.375000 0.500000
vt 0.625000 0.375000
vt 0.625000 0.500000
vt 0.625000 0.750000
vt 0.375000 0.750000
vt 0.375000 0.875000
vt 0.750000 0.500000
vt 0.750000 0.750000
vt 0.625000 0.875000
vt 0.000000 0.000000
s 0
usemtl Alien_1.002
f 1/1/1 5/2/1 32/2/1
f 1/1/1 32/2/1 29/1/1
f 21/1/1 23/3/1 18/4/1
f 21/1/1 18/4/1 15/2/1
f 17/2/2 20/4/2 14/5/2
f 17/2/2 14/5/2 11/6/2
f 45/6/3 60/6/3 73/6/3
f 45/6/3 73/6/3 67/6/3
f 16/2/4 10/6/4 8/6/4
f 16/2/4 8/6/4 6/2/4
f 10/6/4 26/7/4 4/7/4
f 10/6/4 4/7/4 8/6/4
f 19/4/4 24/8/4 28/9/4
f 19/4/4 28/9/4 13/5/4
f 22/1/4 16/2/4 6/2/4
f 22/1/4 6/2/4 2/1/4
f 9/6/5 12/5/5 27/10/5
f 9/6/5 27/10/5 25/7/5
f 7/6/5 3/7/5 30/7/5
f 7/6/5 30/7/5 35/6/5
f 7/6/5 35/6/5 44/6/5
f 7/6/5 44/6/5 37/6/5
f 42/2/2 39/6/2 46/6/2
f 42/2/2 46/6/2 50/2/2
f 29/1/1 32/2/1 53/2/1
f 29/1/1 53/2/1 51/1/1
f 6/2/4 8/6/4 38/6/4
f 6/2/4 38/6/4 41/2/4
f 32/2/1 5/2/1 40/2/1
f 32/2/1 40/2/1 48/2/1
f 97/6/6 99/2/6 133/2/6
f 97/6/6 133/2/6 135/6/6
f 75/2/1 86/2/1 105/2/1
f 75/2/1 105/2/1 100/2/1
f 101/6/7 104/2/7 155/2/7
f 101/6/7 155/2/7 158/6/7
f 35/6/5 30/7/5 52/7/5
f 35/6/5 52/7/5 56/6/5
f 107/6/5 128/6/5 171/6/5
f 107/6/5 171/6/5 164/6/5
f 53/2/1 62/2/1 95/2/1
f 53/2/1 95/2/1 91/2/1
f 49/2/4 45/6/4 67/6/4
f 49/2/4 67/6/4 70/2/4
f 60/6/4 63/2/4 76/2/4
f 60/6/4 76/2/4 73/6/4
f 63/2/3 49/2/3 70/2/3
f 63/2/3 70/2/3 76/2/3
f 82/2/2 79/6/2 85/6/2
f 82/2/2 85/6/2 88/2/2
f 66/6/5 72/6/5 83/6/5
f 66/6/5 83/6/5 77/6/5
f 70/2/4 67/6/4 78/6/4
f 70/2/4 78/6/4 81/2/4
f 75/2/1 69/2/1 80/2/1
f 75/2/1 80/2/1 86/2/1
f 83/6/5 72/6/5 98/6/5
f 83/6/5 98/6/5 102/6/5
f 64/2/2 61/6/2 94/6/2
f 64/2/2 94/6/2 96/2/2
f 51/1/1 53/2/1 91/2/1
f 51/1/1 91/2/1 89/1/1
f 59/6/5 56/6/5 92/6/5
f 59/6/5 92/6/5 93/6/5
f 71/6/6 74/2/6 99/2/6
f 71/6/6 99/2/6 97/6/6
f 56/6/5 52/7/5 90/7/5
f 56/6/5 90/7/5 92/6/5
f 92/6/5 90/7/5 117/7/5
f 92/6/5 117/7/5 115/6/5
f 145/2/1 147/2/1 161/2/1
f 145/2/1 161/2/1 168/2/1
f 124/6/4 131/2/4 112/2/4
f 124/6/4 112/2/4 110/6/4
f 137/2/7 140/6/7 114/6/7
f 137/2/7 114/6/7 119/2/7
f 115/6/5 117/7/5 179/7/5
f 115/6/5 179/7/5 181/6/5
f 91/2/1 95/2/1 138/2/1
f 91/2/1 138/2/1 120/2/1
f 106/2/4 103/6/4 113/6/4
f 106/2/4 113/6/4 122/2/4
f 105/2/1 86/2/1 152/2/1
f 105/2/1 152/2/1 156/2/1
f 113/6/3 110/6/3 129/6/3
f 113/6/3 129/6/3 108/6/3
f 132/2/2 125/6/2 189/6/2
f 132/2/2 189/6/2 200/2/2
f 102/6/5 98/6/5 136/6/5
f 102/6/5 136/6/5 123/6/5
f 163/2/2 166/6/2 172/6/2
f 163/2/2 172/6/2 169/2/2
f 151/6/2 160/6/2 157/2/2
f 151/6/2 157/2/2 154/2/2
f 89/1/1 91/2/1 120/2/1
f 89/1/1 120/2/1 118/1/1
f 122/2/4 113/6/4 108/6/4
f 122/2/4 108/6/4 148/2/4
f 93/6/5 92/6/5 115/6/5
f 93/6/5 115/6/5 141/6/5
f 112/2/3 122/2/3 148/2/3
f 112/2/3 148/2/3 146/2/3
f 110/6/4 112/2/4 146/2/4
f 110/6/4 146/2/4 129/6/4
f 100/2/1 105/2/1 130/2/1
f 100/2/1 130/2/1 134/2/1
f 131/2/3 106/2/3 122/2/3
f 131/2/3 122/2/3 112/2/3
f 83/6/5 102/6/5 159/6/5
f 83/6/5 159/6/5 149/6/5
f 96/2/2 94/6/2 142/6/2
f 96/2/2 142/6/2 139/2/2
f 103/6/3 124/6/3 110/6/3
f 103/6/3 110/6/3 113/6/3
f 123/6/5 136/6/5 192/6/5
f 123/6/5 192/6/5 187/6/5
f 148/2/4 108/6/4 165/6/4
f 148/2/4 165/6/4 162/2/4
f 87/2/4 84/6/4 150/6/4
f 87/2/4 150/6/4 153/2/4
f 173/2/7 180/6/7 178/7/7
f 173/2/7 178/7/7 176/1/7
f 121/2/2 116/6/2 182/6/2
f 121/2/2 182/6/2 175/2/2
f 118/1/1 120/2/1 174/2/1
f 118/1/1 174/2/1 177/1/1
f 197/11/7 186/11/7 191/11/7
f 197/11/7 191/11/7 194/11/7
f 213/2/1 198/2/1 217/2/1
f 213/2/1 217/2/1 223/2/1
s 1
f 212/11/3 233/11/6 229/11/3
s 0
f 229/11/6 204/11/6 185/11/6
s 1
f 196/11/3 212/11/3 229/11/3
s 0
f 196/11/6 229/11/6 185/11/6
f 210/2/1 213/2/1 242/2/1
f 210/2/1 242/2/1 252/2/1
f 126/6/6 143/2/6 183/2/6
f 126/6/6 183/2/6 184/6/6
f 135/6/6 133/2/6 193/2/6
f 135/6/6 193/2/6 190/6/6
f 134/2/1 130/2/1 198/2/1
f 134/2/1 198/2/1 195/2/1
s 1
f 170/11/7 127/11/7 109/11/7
f 111/11/7 144/11/7 167/11/7
s 0
f 170/11/7 109/11/7 111/11/7
f 111/11/7 167/11/7 170/11/7
f 203/11/4 206/11/4 235/11/4
f 231/11/4 214/11/4 211/11/4
f 203/11/4 235/11/4 231/11/4
f 211/11/4 203/11/4 231/11/4
f 219/2/2 222/6/2 228/6/2
f 219/2/2 228/6/2 225/2/2
f 224/2/4 227/6/4 240/6/4
f 224/2/4 240/6/4 238/2/4
f 187/6/5 205/6/5 226/6/5
f 187/6/5 226/6/5 220/6/5
f 199/2/4 188/6/4 221/6/4
f 199/2/4 221/6/4 218/2/4
f 234/6/7 230/2/7 237/2/7
f 234/6/7 237/2/7 239/6/7
f 227/6/4 207/6/4 236/6/4
f 227/6/4 236/6/4 240/6/4
f 207/6/4 215/2/4 232/2/4
f 207/6/4 232/2/4 236/6/4
f 215/2/4 224/2/4 238/2/4
f 215/2/4 238/2/4 232/2/4
f 248/6/7 251/2/7 241/2/7
f 248/6/7 241/2/7 244/6/7
f 201/6/6 209/2/6 250/2/6
f 201/6/6 250/2/6 247/6/6
f 216/2/2 208/6/2 246/6/2
f 216/2/2 246/6/2 243/2/2
f 205/6/5 202/6/5 249/6/5
f 205/6/5 249/6/5 245/6/5
f 33/2/2 36/6/2 58/6/2
f 33/2/2 58/6/2 55/2/2
f 54/2/4 57/6/4 60/6/4
f 54/2/4 60/6/4 63/2/4
f 65/6/6 68/2/6 74/2/6
f 65/6/6 74/2/6 71/6/6
f 34/6/7 31/2/7 47/2/7
f 34/6/7 47/2/7 43/6/7
f 1/1/1 29/1/1 271/2/1
f 1/1/1 271/2/1 253/2/1
f 21/1/1 264/2/1 267/4/1
f 21/1/1 267/4/1 23/3/1
f 263/2/6 257/6/6 260/5/6
f 263/2/6 260/5/6 266/4/6
f 284/6/3 302/6/3 308/6/3
f 284/6/3 308/6/3 297/6/3
f 265/2/4 254/2/4 256/6/4
f 265/2/4 256/6/4 259/6/4
f 259/6/4 256/6/4 4/7/4
f 259/6/4 4/7/4 26/7/4
f 268/4/4 262/5/4 28/9/4
f 268/4/4 28/9/4 24/8/4
f 22/1/4 2/1/4 254/2/4
f 22/1/4 254/2/4 265/2/4
f 258/6/5 25/7/5 27/10/5
f 258/6/5 27/10/5 261/5/5
f 255/6/5 274/6/5 30/7/5
f 255/6/5 30/7/5 3/7/5
f 255/6/5 276/6/5 283/6/5
f 255/6/5 283/6/5 274/6/5
f 278/2/6 285/2/6 281/6/6
f 278/2/6 281/6/6 275/6/6
f 29/1/1 51/1/1 290/2/1
f 29/1/1 290/2/1 271/2/1
f 254/2/4 280/2/4 277/6/4
f 254/2/4 277/6/4 256/6/4
f 271/2/1 287/2/1 279/2/1
f 271/2/1 279/2/1 253/2/1
f 332/6/2 368/6/2 366/2/2
f 332/6/2 366/2/2 334/2/2
f 310/2/1 333/2/1 339/2/1
f 310/2/1 339/2/1 323/2/1
f 335/6/7 391/6/7 388/2/7
f 335/6/7 388/2/7 338/2/7
f 274/6/5 293/6/5 52/7/5
f 274/6/5 52/7/5 30/7/5
f 341/6/5 397/6/5 404/6/5
f 341/6/5 404/6/5 359/6/5
f 290/2/1 325/2/1 330/2/1
f 290/2/1 330/2/1 299/2/1
f 288/2/4 305/2/4 302/6/4
f 288/2/4 302/6/4 284/6/4
f 297/6/4 308/6/4 311/2/4
f 297/6/4 311/2/4 300/2/4
f 300/2/3 311/2/3 305/2/3
f 300/2/3 305/2/3 288/2/3
f 316/2/6 322/2/6 319/6/6
f 316/2/6 319/6/6 313/6/6
f 301/6/5 314/6/5 320/6/5
f 301/6/5 320/6/5 307/6/5
f 305/2/4 318/2/4 315/6/4
f 305/2/4 315/6/4 302/6/4
f 310/2/1 323/2/1 317/2/1
f 310/2/1 317/2/1 304/2/1
f 320/6/5 336/6/5 331/6/5
f 320/6/5 331/6/5 307/6/5
f 298/2/6 329/2/6 327/6/6
f 298/2/6 327/6/6 295/6/6
f 51/1/1 89/1/1 325/2/1
f 51/1/1 325/2/1 290/2/1
f 296/6/5 328/6/5 326/6/5
f 296/6/5 326/6/5 293/6/5
f 309/6/2 332/6/2 334/2/2
f 309/6/2 334/2/2 312/2/2
f 293/6/5 326/6/5 90/7/5
f 293/6/5 90/7/5 52/7/5
f 326/6/5 350/6/5 117/7/5
f 326/6/5 117/7/5 90/7/5
f 376/2/1 401/2/1 394/2/1
f 376/2/1 394/2/1 379/2/1
f 357/6/4 344/6/4 346/2/4
f 357/6/4 346/2/4 364/2/4
f 370/2/7 352/2/7 349/6/7
f 370/2/7 349/6/7 373/6/7
f 350/6/5 410/6/5 179/7/5
f 350/6/5 179/7/5 117/7/5
f 325/2/1 353/2/1 371/2/1
f 325/2/1 371/2/1 330/2/1
f 340/2/4 354/2/4 347/6/4
f 340/2/4 347/6/4 337/6/4
f 339/2/1 389/2/1 385/2/1
f 339/2/1 385/2/1 323/2/1
f 347/6/3 342/6/3 360/6/3
f 347/6/3 360/6/3 344/6/3
f 362/2/6 424/2/6 413/6/6
f 362/2/6 413/6/6 355/6/6
f 336/6/5 356/6/5 367/6/5
f 336/6/5 367/6/5 331/6/5
f 393/2/6 399/2/6 402/6/6
f 393/2/6 402/6/6 396/6/6
f 381/6/6 384/2/6 387/2/6
f 381/6/6 387/2/6 390/6/6
f 89/1/1 118/1/1 353/2/1
f 89/1/1 353/2/1 325/2/1
f 354/2/4 380/2/4 342/6/4
f 354/2/4 342/6/4 347/6/4
f 328/6/5 374/6/5 350/6/5
f 328/6/5 350/6/5 326/6/5
f 346/2/3 377/2/3 380/2/3
f 346/2/3 380/2/3 354/2/3
f 344/6/4 360/6/4 377/2/4
f 344/6/4 377/2/4 346/2/4
f 333/2/1 365/2/1 363/2/1
f 333/2/1 363/2/1 339/2/1
f 364/2/3 346/2/3 354/2/3
f 364/2/3 354/2/3 340/2/3
f 320/6/5 382/6/5 392/6/5
f 320/6/5 392/6/5 336/6/5
f 329/2/6 369/2/6 372/6/6
f 329/2/6 372/6/6 327/6/6
f 337/6/3 347/6/3 344/6/3
f 337/6/3 344/6/3 357/6/3
f 356/6/5 415/6/5 419/6/5
f 356/6/5 419/6/5 367/6/5
f 380/2/4 395/2/4 398/6/4
f 380/2/4 398/6/4 342/6/4
f 324/2/4 386/2/4 383/6/4
f 324/2/4 383/6/4 321/6/4
f 406/2/7 176/1/7 178/7/7
f 406/2/7 178/7/7 409/6/7
f 351/2/6 405/2/6 408/6/6
f 351/2/6 408/6/6 348/6/6
f 118/1/1 177/1/1 407/2/1
f 118/1/1 407/2/1 353/2/1
f 425/11/7 421/11/7 418/11/7
f 425/11/7 418/11/7 414/11/7
f 441/2/1 452/2/1 446/2/1
f 441/2/1 446/2/1 426/2/1
s 1
f 436/11/3 460/11/2 464/11/3
s 0
f 464/11/2 444/11/2 428/11/2
s 1
f 417/11/3 436/11/3 464/11/3
s 0
f 428/11/2 417/11/2 464/11/2
f 437/2/1 479/2/1 471/2/1
f 437/2/1 471/2/1 441/2/1
f 361/6/2 412/6/2 411/2/2
f 361/6/2 411/2/2 378/2/2
f 368/6/2 420/6/2 423/2/2
f 368/6/2 423/2/2 366/2/2
f 365/2/1 422/2/1 426/2/1
f 365/2/1 426/2/1 363/2/1
s 1
f 343/11/7 358/11/7 403/11/7
f 400/11/7 375/11/7 345/11/7
s 0
f 345/11/7 343/11/7 403/11/7
f 403/11/7 400/11/7 345/11/7
f 438/11/4 442/11/4 458/11/4
f 462/11/4 434/11/4 430/11/4
f 438/11/4 458/11/4 462/11/4
f 438/11/4 462/11/4 430/11/4
f 445/2/6 451/2/6 454/6/6
f 445/2/6 454/6/6 448/6/6
f 453/2/4 466/2/4 468/6/4
f 453/2/4 468/6/4 456/6/4
f 415/6/5 449/6/5 455/6/5
f 415/6/5 455/6/5 433/6/5
f 427/2/4 447/2/4 450/6/4
f 427/2/4 450/6/4 416/6/4
f 461/6/7 467/6/7 465/2/7
f 461/6/7 465/2/7 457/2/7
f 456/6/4 468/6/4 463/6/4
f 456/6/4 463/6/4 435/6/4
f 435/6/4 463/6/4 459/2/4
f 435/6/4 459/2/4 443/2/4
f 443/2/4 459/2/4 466/2/4
f 443/2/4 466/2/4 453/2/4
f 475/6/7 473/6/7 470/2/7
f 475/6/7 470/2/7 478/2/7
f 431/6/2 477/6/2 480/2/2
f 431/6/2 480/2/2 439/2/2
f 440/2/6 469/2/6 472/6/6
f 440/2/6 472/6/6 432/6/6
f 433/6/5 474/6/5 476/6/5
f 433/6/5 476/6/5 429/6/5
f 269/2/6 289/2/6 292/6/6
f 269/2/6 292/6/6 272/6/6
f 291/2/4 300/2/4 297/6/4
f 291/2/4 297/6/4 294/6/4
f 303/6/2 309/6/2 312/2/2
f 303/6/2 312/2/2 306/2/2
f 273/6/7 282/6/7 286/2/7
f 273/6/7 286/2/7 270/2/7
