
mtllib alien2.mtl
o Alien_2
v 0.000000 0.000000 0.200000
v 0.000000 0.000000 -0.200000
v 0.000000 0.000000 -0.200000
v 0.000000 0.000000 -0.200000
v 0.000000 0.000000 0.200000
v 0.000000 0.000000 0.200000
v 0.000000 0.400000 -0.200000
v 0.000000 0.400000 0.200000
v 0.400000 0.000000 -0.200000
v 0.400000 0.000000 -0.200000
v 0.400000 0.000000 -0.200000
v 0.400000 0.000000 -0.200000
v 0.400000 0.000000 0.200000
v 0.400000 0.000000 0.200000
v 0.400000 0.000000 0.200000
v 0.400000 0.000000 0.200000
v 0.400000 0.400000 -0.200000
v 0.400000 0.400000 -0.200000
v 0.400000 0.400000 -0.200000
v 0.400000 0.400000 0.200000
v 0.400000 0.400000 0.200000
v 0.400000 0.400000 0.200000
v 0.800000 0.000000 -0.200000
v 0.800000 0.000000 -0.200000
v 0.800000 0.000000 -0.200000
v 0.800000 0.000000 -0.200000
v 0.800000 0.000000 0.200000
v 0.800000 0.000000 0.200000
v 0.800000 0.000000 0.200000
v 0.800000 0.000000 0.200000
v 0.800000 0.400000 -0.200000
v 0.800000 0.400000 -0.200000
v 0.800000 0.400000 -0.200000
v 0.800000 0.400000 0.200000
v 0.800000 0.400000 0.200000
v 0.800000 0.400000 0.200000
v 1.200000 0.000000 -0.200000
v 1.200000 0.000000 -0.200000
v 1.200000 0.000000 0.200000
v 1.200000 0.000000 0.200000
v 1.200000 0.400000 -0.200000
v 1.200000 0.400000 0.200000
v 1.600000 0.000000 -0.200000
v 1.600000 0.000000 -0.200000
v 1.600000 0.000000 -0.200000
v 1.600000 0.000000 -0.200000
v 1.600000 0.000000 0.200000
v 1.600000 0.000000 0.200000
v 1.600000 0.000000 0.200000
v 1.600000 0.000000 0.200000
v 1.600000 0.400000 -0.200000
v 1.600000 0.400000 -0.200000
v 1.600000 0.400000 0.200000
v 1.600000 0.400000 0.200000
v 0.000000 0.800000 -0.200000
v 0.000000 0.800000 -0.200000
v 0.400000 0.800000 -0.200000
v 0.400000 0.800000 -0.200000
v 0.000000 0.800000 0.200000
v 0.000000 0.800000 0.200000
v 0.400000 0.800000 0.200000
v 0.400000 0.800000 0.200000
v 0.800000 0.800000 -0.200000
v 0.800000 0.800000 -0.200000
v 1.200000 0.800000 -0.200000
v 1.200000 0.800000 -0.200000
v 0.800000 0.800000 0.200000
v 0.800000 0.800000 0.200000
v 1.200000 0.800000 0.200000
v 1.200000 0.800000 0.200000
v 1.600000 0.800000 0.200000
v 1.600000 0.800000 0.200000
v 1.600000 0.800000 0.200000
v 1.600000 0.800000 -0.200000
v 1.600000 0.800000 -0.200000
v 1.600000 0.800000 -0.200000
v 0.000000 0.000000 -0.200000
v 0.000000 0.000000 0.200000
v 0.000000 -0.400000 0.200000
v 0.000000 -0.400000 -0.200000
v 0.400000 -0.400000 0.200000
v 0.400000 -0.400000 -0.200000
v 0.800000 -0.400000 0.200000
v 0.800000 -0.400000 -0.200000
v 1.200000 -0.400000 0.200000
v 1.200000 -0.400000 0.200000
v 1.200000 -0.400000 0.200000
v 1.200000 -0.400000 -0.200000
v 1.200000 -0.400000 -0.200000
v 1.200000 -0.400000 -0.200000
v 1.600000 -0.400000 0.200000
v 1.600000 -0.400000 0.200000
v 1.600000 -0.400000 0.200000
v 1.600000 -0.400000 0.200000
v 1.600000 -0.400000 0.200000
v 1.600000 -0.400000 -0.200000
v 1.600000 -0.400000 -0.200000
v 1.600000 -0.400000 -0.200000
v 1.600000 -0.400000 -0.200000
v 1.600000 -0.400000 -0.200000
v 2.000000 -0.400000 -0.200000
v 2.000000 -0.400000 -0.200000
v 2.000000 -0.400000 -0.200000
v 2.000000 -0.400000 0.200000
v 2.000000 -0.400000 0.200000
v 2.000000 -0.400000 0.200000
v 0.800000 0.800000 -0.200000
v 0.800000 0.800000 -0.200000
v 0.800000 0.800000 -0.200000
v 1.200000 0.800000 -0.200000
v 1.200000 0.800000 -0.200000
v 1.200000 0.800000 -0.200000
v 0.800000 0.800000 0.200000
v 0.800000 0.800000 0.200000
v 0.800000 0.800000 0.200000
v 1.200000 0.800000 0.200000
v 1.200000 0.800000 0.200000
v 1.200000 0.800000 0.200000
v 0.800000 1.200000 -0.200000
v 0.800000 1.200000 -0.200000
v 0.800000 1.200000 -0.200000
v 1.200000 1.200000 -0.200000
v 1.200000 1.200000 -0.200000
v 1.200000 1.200000 -0.200000
v 1.200000 1.200000 -0.200000
v 1.200000 1.200000 -0.200000
v 0.800000 1.200000 0.200000
v 0.800000 1.200000 0.200000
v 0.800000 1.200000 0.200000
v 1.200000 1.200000 0.200000
v 1.200000 1.200000 0.200000
v 1.200000 1.200000 0.200000
v 1.200000 1.200000 0.200000
v 1.200000 1.200000 0.200000
v 0.000000 -0.800000 0.200000
v 0.000000 -0.800000 0.200000
v 0.000000 -0.800000 -0.200000
v 0.000000 -0.800000 -0.200000
v 0.400000 -0.800000 0.200000
v 0.400000 -0.800000 0.200000
v 0.400000 -0.800000 -0.200000
v 0.400000 -0.800000 -0.200000
v 0.800000 -0.800000 0.200000
v 0.800000 -0.800000 0.200000
v 0.800000 -0.800000 0.200000
v 0.800000 -0.800000 -0.200000
v 0.800000 -0.800000 -0.200000
v 0.800000 -0.800000 -0.200000
v 1.200000 -0.800000 0.200000
v 1.200000 -0.800000 0.200000
v 1.200000 -0.800000 -0.200000
v 1.200000 -0.800000 -0.200000
v 1.600000 -0.800000 0.200000
v 1.600000 -0.800000 0.200000
v 1.600000 -0.800000 -0.200000
v 1.600000 -0.800000 -0.200000
v 2.000000 -0.800000 0.200000
v 2.000000 -0.800000 0.200000
v 2.000000 -0.800000 -0.200000
v 2.000000 -0.800000 -0.200000
v 1.600000 -1.200000 0.200000
v 1.600000 -1.200000 0.200000
v 1.600000 -1.200000 0.200000
v 1.600000 -1.200000 -0.200000
v 1.600000 -1.200000 -0.200000
v 1.600000 -1.200000 -0.200000
v 2.000000 -1.200000 0.200000
v 2.000000 -1.200000 0.200000
v 2.000000 -1.200000 0.200000
v 2.000000 -1.200000 -0.200000
v 2.000000 -1.200000 -0.200000
v 2.000000 -1.200000 -0.200000
v 0.800000 -1.200000 0.200000
v 0.800000 -1.200000 0.200000
v 0.800000 -1.200000 0.200000
v 0.800000 -1.200000 -0.200000
v 0.800000 -1.200000 -0.200000
v 0.800000 -1.200000 -0.200000
v 1.200000 -1.200000 0.200000
v 1.200000 -1.200000 0.200000
v 1.200000 -1.200000 -0.200000
v 1.200000 -1.200000 -0.200000
v 0.800000 -1.600000 0.200000
v 0.800000 -1.600000 0.200000
v 0.800000 -1.600000 -0.200000
v 0.800000 -1.600000 -0.200000
v 1.200000 -1.600000 0.200000
v 1.200000 -1.600000 0.200000
v 1.200000 -1.600000 0.200000
v 1.200000 -1.600000 -0.200000
v 1.200000 -1.600000 -0.200000
v 1.200000 -1.600000 -0.200000
v 0.400000 -1.200000 0.200000
v 0.400000 -1.200000 0.200000
v 0.400000 -1.200000 -0.200000
v 0.400000 -1.200000 -0.200000
v 0.400000 -1.600000 0.200000
v 0.400000 -1.600000 0.200000
v 0.400000 -1.600000 -0.200000
v 0.400000 -1.600000 -0.200000
v 1.200000 1.600000 -0.200000
v 1.200000 1.600000 -0.200000
v 1.200000 1.600000 -0.200000
v 1.200000 1.600000 0.200000
v 1.200000 1.600000 0.200000
v 1.200000 1.600000 0.200000
v 1.600000 1.200000 -0.200000
v 1.600000 1.200000 -0.200000
v 1.600000 1.200000 -0.200000
v 1.600000 1.200000 0.200000
v 1.600000 1.200000 0.200000
v 1.600000 1.200000 0.200000
v 1.600000 1.600000 -0.200000
v 1.600000 1.600000 -0.200000
v 1.600000 1.600000 -0.200000
v 1.600000 1.600000 0.200000
v 1.600000 1.600000 0.200000
v 1.600000 1.600000 0.200000
v -0.400000 0.000000 -0.200000
v -0.400000 0.000000 -0.200000
v -0.400000 0.000000 -0.200000
v -0.400000 0.000000 -0.200000
v -0.400000 0.000000 0.200000
v -0.400000 0.000000 0.200000
v -0.400000 0.000000 0.200000
v -0.400000 0.000000 0.200000
v -0.400000 0.400000 -0.200000
v -0.400000 0.400000 -0.200000
v -0.400000 0.400000 -0.200000
v -0.400000 0.400000 0.200000
v -0.400000 0.400000 0.200000
v -0.400000 0.400000 0.200000
v -0.800000 0.000000 -0.200000
v -0.800000 0.000000 -0.200000
v -0.800000 0.000000 -0.200000
v -0.800000 0.000000 -0.200000
v -0.800000 0.000000 0.200000
v -0.800000 0.000000 0.200000
v -0.800000 0.000000 0.200000
v -0.800000 0.000000 0.200000
v -0.800000 0.400000 -0.200000
v -0.800000 0.400000 -0.200000
v -0.800000 0.400000 -0.200000
v -0.800000 0.400000 0.200000
v -0.800000 0.400000 0.200000
v -0.800000 0.400000 0.200000
v -1.200000 0.000000 -0.200000
v -1.200000 0.000000 -0.200000
v -1.200000 0.000000 0.200000
v -1.200000 0.000000 0.200000
v -1.200000 0.400000 -0.200000
v -1.200000 0.400000 0.200000
v -1.600000 0.000000 -0.200000
v -1.600000 0.000000 -0.200000
v -1.600000 0.000000 -0.200000
v -1.600000 0.000000 -0.200000
v -1.600000 0.000000 0.200000
v -1.600000 0.000000 0.200000
v -1.600000 0.000000 0.200000
v -1.600000 0.000000 0.200000
v -1.600000 0.400000 -0.200000
v -1.600000 0.400000 -0.200000
v -1.600000 0.400000 0.200000
v -1.600000 0.400000 0.200000
v -0.400000 0.800000 -0.200000
v -0.400000 0.800000 -0.200000
v -0.400000 0.800000 0.200000
v -0.400000 0.800000 0.200000
v -0.800000 0.800000 -0.200000
v -0.800000 0.800000 -0.200000
v -1.200000 0.800000 -0.200000
v -1.200000 0.800000 -0.200000
v -0.800000 0.800000 0.200000
v -0.800000 0.800000 0.200000
v -1.200000 0.800000 0.200000
v -1.200000 0.800000 0.200000
v -1.600000 0.800000 0.200000
v -1.600000 0.800000 0.200000
v -1.600000 0.800000 0.200000
v -1.600000 0.800000 -0.200000
v -1.600000 0.800000 -0.200000
v -1.600000 0.800000 -0.200000
v -0.400000 -0.400000 0.200000
v -0.400000 -0.400000 -0.200000
v -0.800000 -0.400000 0.200000
v -0.800000 -0.400000 -0.200000
v -1.200000 -0.400000 0.200000
v -1.200000 -0.400000 0.200000
v -1.200000 -0.400000 0.200000
v -1.200000 -0.400000 -0.200000
v -1.200000 -0.400000 -0.200000
v -1.200000 -0.400000 -0.200000
v -1.600000 -0.400000 0.200000
v -1.600000 -0.400000 0.200000
v -1.600000 -0.400000 0.200000
v -1.600000 -0.400000 0.200000
v -1.600000 -0.400000 0.200000
v -1.600000 -0.400000 -0.200000
v -1.600000 -0.400000 -0.200000
v -1.600000 -0.400000 -0.200000
v -1.600000 -0.400000 -0.200000
v -1.600000 -0.400000 -0.200000
v -2.000000 -0.400000 -0.200000
v -2.000000 -0.400000 -0.200000
v -2.000000 -0.400000 -0.200000
v -2.000000 -0.400000 0.200000
v -2.000000 -0.400000 0.200000
v -2.000000 -0.400000 0.200000
v -0.800000 0.800000 -0.200000
v -0.800000 0.800000 -0.200000
v -0.800000 0.800000 -0.200000
v -1.200000 0.800000 -0.200000
v -1.200000 0.800000 -0.200000
v -1.200000 0.800000 -0.200000
v -0.800000 0.800000 0.200000
v -0.800000 0.800000 0.200000
v -0.800000 0.800000 0.200000
v -1.200000 0.800000 0.200000
v -1.200000 0.800000 0.200000
v -1.200000 0.800000 0.200000
v -0.800000 1.200000 -0.200000
v -0.800000 1.200000 -0.200000
v -0.800000 1.200000 -0.200000
v -1.200000 1.200000 -0.200000
v -1.200000 1.200000 -0.200000
v -1.200000 1.200000 -0.200000
v -1.200000 1.200000 -0.200000
v -1.200000 1.200000 -0.200000
v -0.800000 1.200000 0.200000
v -0.800000 1.200000 0.200000
v -0.800000 1.200000 0.200000
v -1.200000 1.200000 0.200000
v -1.200000 1.200000 0.200000
v -1.200000 1.200000 0.200000
v -1.200000 1.200000 0.200000
v -1.200000 1.200000 0.200000
v -0.400000 -0.800000 0.200000
v -0.400000 -0.800000 0.200000
v -0.400000 -0.800000 -0.200000
v -0.400000 -0.800000 -0.200000
v -0.800000 -0.800000 0.200000
v -0.800000 -0.800000 0.200000
v -0.800000 -0.800000 0.200000
v -0.800000 -0.800000 -0.200000
v -0.800000 -0.800000 -0.200000
v -0.800000 -0.800000 -0.200000
v -1.200000 -0.800000 0.200000
v -1.200000 -0.800000 0.200000
v -1.200000 -0.800000 -0.200000
v -1.200000 -0.800000 -0.200000
v -1.600000 -0.800000 0.200000
v -1.600000 -0.800000 0.200000
v -1.600000 -0.800000 -0.200000
v -1.600000 -0.800000 -0.200000
v -2.000000 -0.800000 0.200000
v -2.000000 -0.800000 0.200000
v -2.000000 -0.800000 -0.200000
v -2.000000 -0.800000 -0.200000
v -1.600000 -1.200000 0.200000
v -1.600000 -1.200000 0.200000
v -1.600000 -1.200000 0.200000
v -1.600000 -1.200000 -0.200000
v -1.600000 -1.200000 -0.200000
v -1.600000 -1.200000 -0.200000
v -2.000000 -1.200000 0.200000
v -2.000000 -1.200000 0.200000
v -2.000000 -1.200000 0.200000
v -2.000000 -1.200000 -0.200000
v -2.000000 -1.200000 -0.200000
v -2.000000 -1.200000 -0.200000
v -0.800000 -1.200000 0.200000
v -0.800000 -1.200000 0.200000
v -0.800000 -1.200000 0.200000
v -0.800000 -1.200000 -0.200000
v -0.800000 -1.200000 -0.200000
v -0.800000 -1.200000 -0.200000
v -1.200000 -1.200000 0.200000
v -1.200000 -1.200000 0.200000
v -1.200000 -1.200000 -0.200000
v -1.200000 -1.200000 -0.200000
v -0.800000 -1.600000 0.200000
v -0.800000 -1.600000 0.200000
v -0.800000 -1.600000 -0.200000
v -0.800000 -1.600000 -0.200000
v -1.200000 -1.600000 0.200000
v -1.200000 -1.600000 0.200000
v -1.200000 -1.600000 0.200000
v -1.200000 -1.600000 -0.200000
v -1.200000 -1.600000 -0.200000
v -1.200000 -1.600000 -0.200000
v -0.400000 -1.200000 0.200000
v -0.400000 -1.200000 0.200000
v -0.400000 -1.200000 -0.200000
v -0.400000 -1.200000 -0.200000
v -0.400000 -1.600000 0.200000
v -0.400000 -1.600000 0.200000
v -0.400000 -1.600000 -0.200000
v -0.400000 -1.600000 -0.200000
v -1.200000 1.600000 -0.200000
v -1.200000 1.600000 -0.200000
v -1.200000 1.600000 -0.200000
v -1.200000 1.600000 0.200000
v -1.200000 1.600000 0.200000
v -1.200000 1.600000 0.200000
v -1.600000 1.200000 -0.200000
v -1.600000 1.200000 -0.200000
v -1.600000 1.200000 -0.200000
v -1.600000 1.200000 0.200000
v -1.600000 1.200000 0.200000
v -1.600000 1.200000 0.200000
v -1.600000 1.600000 -0.200000
v -1.600000 1.600000 -0.200000
v -1.600000 1.600000 -0.200000
v -1.600000 1.600000 0.200000
v -1.600000 1.600000 0.200000
v -1.600000 1.600000 0.200000
vn -0.0000 -0.0000 1.0000
vn 1.0000 -0.0000 -0.0000
vn -0.0000 1.0000 -0.0000
vn -0.0000 -0.0000 -1.0000
vn -1.0000 -0.0000 -0.0000
vn -0.0000 -1.0000 -0.0000
vt 0.375000 0.750000
vt 0.625000 0.750000
vt 0.625000 0.500000
vt 0.375000 0.500000
vt 0.000000 0.000000
s 0
usemtl Alien_1.001
f 351/1/1 295/1/1 307/1/1
f 351/1/1 307/1/1 356/1/1
f 334/2/1 319/2/1 315/2/1
f 334/2/1 315/2/1 329/2/1
f 22/2/2 16/2/2 11/3/2
f 22/2/2 11/3/2 19/3/2
f 62/2/3 58/3/3 56/3/3
f 62/2/3 56/3/3 60/2/3
f 136/1/1 140/1/1 81/1/1
f 136/1/1 81/1/1 79/1/1
f 340/4/4 284/4/4 80/4/4
f 340/4/4 80/4/4 138/4/4
f 280/3/5 261/3/5 263/2/5
f 280/3/5 263/2/5 277/2/5
f 61/2/1 59/2/1 8/2/1
f 61/2/1 8/2/1 21/2/1
f 226/2/3 221/3/3 234/3/3
f 226/2/3 234/3/3 239/2/3
f 191/4/4 186/4/4 177/4/4
f 191/4/4 177/4/4 181/4/4
f 335/5/3 330/5/3 322/5/3
f 335/5/3 322/5/3 327/5/3
f 102/5/3 99/5/3 94/5/3
f 102/5/3 94/5/3 105/5/3
f 69/2/1 67/2/1 36/2/1
f 69/2/1 36/2/1 42/2/1
f 55/3/4 57/3/4 18/3/4
f 55/3/4 18/3/4 7/3/4
f 416/2/3 403/2/3 400/3/3
f 416/2/3 400/3/3 413/3/3
f 52/3/2 54/2/2 50/2/2
f 52/3/2 50/2/2 44/3/2
f 71/2/1 69/2/1 42/2/1
f 71/2/1 42/2/1 53/2/1
f 339/4/6 137/4/6 135/1/6
f 339/4/6 135/1/6 337/1/6
f 342/1/1 285/1/1 289/1/1
f 342/1/1 289/1/1 348/1/1
f 68/2/3 70/2/3 117/2/3
f 68/2/3 117/2/3 115/2/3
f 324/3/5 312/3/5 318/2/5
f 324/3/5 318/2/5 332/2/5
f 81/1/1 83/1/1 27/1/1
f 81/1/1 27/1/1 13/1/1
f 72/2/3 75/3/3 66/3/3
f 72/2/3 66/3/3 70/2/3
f 321/3/4 309/3/4 313/3/4
f 321/3/4 313/3/4 326/3/4
f 358/4/4 304/4/4 300/4/4
f 358/4/4 300/4/4 353/4/4
f 63/3/4 65/3/4 41/3/4
f 63/3/4 41/3/4 33/3/4
f 2/4/3 1/1/3 78/1/3
f 2/4/3 78/1/3 77/4/3
f 410/2/1 334/2/1 402/2/1
f 410/2/1 402/2/1 415/2/1
f 147/4/6 144/1/6 139/1/6
f 147/4/6 139/1/6 141/4/6
f 171/4/4 166/4/4 156/4/4
f 171/4/4 156/4/4 159/4/4
f 390/4/4 380/4/4 374/4/4
f 390/4/4 374/4/4 384/4/4
f 257/5/5 255/5/5 298/5/5
f 257/5/5 298/5/5 293/5/5
f 350/4/4 292/4/4 286/4/4
f 350/4/4 286/4/4 345/4/4
f 345/4/4 286/4/4 284/4/4
f 345/4/4 284/4/4 340/4/4
f 136/1/1 79/1/1 283/1/1
f 136/1/1 283/1/1 338/1/1
f 354/4/2 302/4/2 297/1/2
f 354/4/2 297/1/2 352/1/2
f 40/2/1 42/2/1 36/2/1
f 40/2/1 36/2/1 29/2/1
f 57/3/4 63/3/4 33/3/4
f 57/3/4 33/3/4 18/3/4
f 169/1/2 172/4/2 160/4/2
f 169/1/2 160/4/2 158/1/2
f 284/4/4 222/4/4 4/4/4
f 284/4/4 4/4/4 80/4/4
f 389/4/6 383/4/6 381/1/6
f 389/4/6 381/1/6 386/1/6
f 66/3/3 64/3/3 109/3/3
f 66/3/3 109/3/3 111/3/3
f 70/2/3 66/3/3 111/3/3
f 70/2/3 111/3/3 117/2/3
f 64/3/3 68/2/3 115/2/3
f 64/3/3 115/2/3 109/3/3
f 377/1/5 347/1/5 349/4/5
f 377/1/5 349/4/5 379/4/5
f 148/4/4 142/4/4 82/4/4
f 148/4/4 82/4/4 84/4/4
f 394/4/3 375/4/3 372/1/3
f 394/4/3 372/1/3 392/1/3
f 336/5/2 328/5/2 401/5/2
f 336/5/2 401/5/2 404/5/2
f 155/4/5 153/1/5 91/1/5
f 155/4/5 91/1/5 96/4/5
f 193/1/1 198/1/1 184/1/1
f 193/1/1 184/1/1 174/1/1
f 159/4/4 156/4/4 98/4/4
f 159/4/4 98/4/4 101/4/4
f 406/3/6 325/3/6 333/2/6
f 406/3/6 333/2/6 409/2/6
f 150/1/2 152/4/2 90/4/2
f 150/1/2 90/4/2 87/1/2
f 154/1/1 157/1/1 104/1/1
f 154/1/1 104/1/1 93/1/1
f 180/1/2 182/4/2 152/4/2
f 180/1/2 152/4/2 150/1/2
f 176/4/5 173/1/5 143/1/5
f 176/4/5 143/1/5 146/4/5
f 184/1/1 188/1/1 179/1/1
f 184/1/1 179/1/1 174/1/1
f 130/5/5 204/5/5 201/5/5
f 130/5/5 201/5/5 122/5/5
f 167/1/6 162/1/6 165/4/6
f 167/1/6 165/4/6 170/4/6
f 82/4/4 80/4/4 4/4/4
f 82/4/4 4/4/4 12/4/4
f 181/4/4 177/4/4 148/4/4
f 181/4/4 148/4/4 151/4/4
f 174/1/1 179/1/1 149/1/1
f 174/1/1 149/1/1 145/1/1
f 207/3/6 210/2/6 131/2/6
f 207/3/6 131/2/6 123/3/6
f 79/1/1 5/1/1 223/1/1
f 79/1/1 223/1/1 283/1/1
f 190/4/6 187/1/6 183/1/6
f 190/4/6 183/1/6 185/4/6
f 213/3/4 208/3/4 124/3/4
f 213/3/4 124/3/4 202/3/4
f 196/4/3 194/1/3 175/1/3
f 196/4/3 175/1/3 178/4/3
f 200/4/4 195/4/4 177/4/4
f 200/4/4 177/4/4 186/4/4
f 197/1/6 199/4/6 185/4/6
f 197/1/6 185/4/6 183/1/6
f 267/2/1 232/2/1 8/2/1
f 267/2/1 8/2/1 59/2/1
f 262/3/4 251/3/4 247/3/4
f 262/3/4 247/3/4 254/3/4
f 251/3/4 242/3/4 233/3/4
f 251/3/4 233/3/4 247/3/4
f 225/2/1 6/2/1 8/2/1
f 225/2/1 8/2/1 232/2/1
f 215/3/2 218/2/2 212/2/2
f 215/3/2 212/2/2 209/3/2
f 376/4/2 346/4/2 343/1/2
f 376/4/2 343/1/2 373/1/2
f 244/2/6 241/3/6 228/3/6
f 244/2/6 228/3/6 231/2/6
f 217/2/3 214/3/3 203/3/3
f 217/2/3 203/3/3 206/2/3
f 250/2/1 238/2/1 245/2/1
f 250/2/1 245/2/1 252/2/1
f 229/3/4 7/3/4 3/3/4
f 229/3/4 3/3/4 220/3/4
f 365/1/5 355/1/5 357/4/5
f 365/1/5 357/4/5 368/4/5
f 55/3/4 7/3/4 229/3/4
f 55/3/4 229/3/4 265/3/4
f 283/1/1 223/1/1 237/1/1
f 283/1/1 237/1/1 285/1/1
f 230/2/5 227/3/5 219/3/5
f 230/2/5 219/3/5 224/2/5
f 268/2/3 60/2/3 56/3/3
f 268/2/3 56/3/3 266/3/3
f 347/1/5 287/1/5 290/4/5
f 347/1/5 290/4/5 349/4/5
f 385/1/5 377/1/5 379/4/5
f 385/1/5 379/4/5 388/4/5
f 240/2/2 235/3/2 243/3/2
f 240/2/2 243/3/2 246/2/2
f 86/1/1 93/1/1 47/1/1
f 86/1/1 47/1/1 39/1/1
f 411/3/5 405/3/5 408/2/5
f 411/3/5 408/2/5 414/2/5
f 292/4/4 248/4/4 236/4/4
f 292/4/4 236/4/4 286/4/4
f 28/2/5 34/2/5 31/3/5
f 28/2/5 31/3/5 23/3/5
f 331/2/2 317/2/2 311/3/2
f 331/2/2 311/3/2 323/3/2
f 275/2/1 252/2/1 245/2/1
f 275/2/1 245/2/1 273/2/1
f 269/3/4 242/3/4 251/3/4
f 269/3/4 251/3/4 271/3/4
f 14/2/1 21/2/1 8/2/1
f 14/2/1 8/2/1 6/2/1
f 18/3/4 9/3/4 3/3/4
f 18/3/4 3/3/4 7/3/4
f 273/2/1 245/2/1 232/2/1
f 273/2/1 232/2/1 267/2/1
f 15/2/3 30/2/3 25/3/3
f 15/2/3 25/3/3 10/3/3
f 274/2/3 316/2/3 320/2/3
f 274/2/3 320/2/3 276/2/3
f 279/2/3 276/2/3 272/3/3
f 279/2/3 272/3/3 282/3/3
f 83/1/1 86/1/1 39/1/1
f 83/1/1 39/1/1 27/1/1
f 65/3/4 74/3/4 51/3/4
f 65/3/4 51/3/4 41/3/4
f 51/3/4 43/3/4 37/3/4
f 51/3/4 37/3/4 41/3/4
f 41/3/4 37/3/4 24/3/4
f 41/3/4 24/3/4 33/3/4
f 289/1/1 249/1/1 258/1/1
f 289/1/1 258/1/1 295/1/1
f 299/4/6 291/4/6 288/1/6
f 299/4/6 288/1/6 294/1/6
f 151/4/4 148/4/4 84/4/4
f 151/4/4 84/4/4 89/4/4
f 97/4/6 92/1/6 85/1/6
f 97/4/6 85/1/6 88/4/6
f 300/4/4 256/4/4 248/4/4
f 300/4/4 248/4/4 292/4/4
f 35/2/6 20/2/6 17/3/6
f 35/2/6 17/3/6 32/3/6
f 211/2/1 216/2/1 205/2/1
f 211/2/1 205/2/1 132/2/1
f 76/3/2 73/2/2 54/2/2
f 76/3/2 54/2/2 52/3/2
f 260/2/1 250/2/1 252/2/1
f 260/2/1 252/2/1 264/2/1
f 278/2/1 264/2/1 252/2/1
f 278/2/1 252/2/1 275/2/1
f 274/2/3 268/2/3 266/3/3
f 274/2/3 266/3/3 270/3/3
f 286/4/4 236/4/4 222/4/4
f 286/4/4 222/4/4 284/4/4
f 338/1/1 283/1/1 285/1/1
f 338/1/1 285/1/1 342/1/1
f 261/3/5 253/3/5 259/2/5
f 261/3/5 259/2/5 263/2/5
f 79/1/1 81/1/1 13/1/1
f 79/1/1 13/1/1 5/1/1
f 272/3/3 314/3/3 310/3/3
f 272/3/3 310/3/3 270/3/3
f 276/2/3 320/2/3 314/3/3
f 276/2/3 314/3/3 272/3/3
f 270/3/3 310/3/3 316/2/3
f 270/3/3 316/2/3 274/2/3
f 68/2/3 64/3/3 58/3/3
f 68/2/3 58/3/3 62/2/3
f 84/4/4 82/4/4 12/4/4
f 84/4/4 12/4/4 26/4/4
f 305/5/3 308/5/3 296/5/3
f 305/5/3 296/5/3 301/5/3
f 355/1/5 306/1/5 303/4/5
f 355/1/5 303/4/5 357/4/5
f 89/4/4 84/4/4 26/4/4
f 89/4/4 26/4/4 38/4/4
f 126/3/2 134/2/2 118/2/2
f 126/3/2 118/2/2 112/3/2
f 366/1/6 369/4/6 362/4/6
f 366/1/6 362/4/6 359/1/6
f 344/4/6 339/4/6 337/1/6
f 344/4/6 337/1/6 341/1/6
f 360/1/1 351/1/1 356/1/1
f 360/1/1 356/1/1 367/1/1
f 364/4/2 354/4/2 352/1/2
f 364/4/2 352/1/2 361/1/2
f 120/3/4 124/3/4 110/3/4
f 120/3/4 110/3/4 108/3/4
f 48/5/2 95/5/2 100/5/2
f 48/5/2 100/5/2 46/5/2
f 370/4/4 358/4/4 353/4/4
f 370/4/4 353/4/4 363/4/4
f 285/1/1 237/1/1 249/1/1
f 285/1/1 249/1/1 289/1/1
f 371/1/1 342/1/1 348/1/1
f 371/1/1 348/1/1 378/1/1
f 141/4/6 139/1/6 135/1/6
f 141/4/6 135/1/6 137/4/6
f 380/4/4 350/4/4 345/4/4
f 380/4/4 345/4/4 374/4/4
f 382/1/1 371/1/1 378/1/1
f 382/1/1 378/1/1 387/1/1
f 133/5/3 125/5/3 121/5/3
f 133/5/3 121/5/3 129/5/3
f 127/2/5 119/3/5 107/3/5
f 127/2/5 107/3/5 113/2/5
f 395/1/6 381/1/6 383/4/6
f 395/1/6 383/4/6 397/4/6
f 132/2/1 128/2/1 114/2/1
f 132/2/1 114/2/1 116/2/1
f 145/1/1 149/1/1 86/1/1
f 145/1/1 86/1/1 83/1/1
f 142/4/4 138/4/4 80/4/4
f 142/4/4 80/4/4 82/4/4
f 391/1/1 371/1/1 382/1/1
f 391/1/1 382/1/1 396/1/1
f 98/4/4 89/4/4 38/4/4
f 98/4/4 38/4/4 45/4/4
f 140/1/1 145/1/1 83/1/1
f 140/1/1 83/1/1 81/1/1
f 412/3/4 399/3/4 326/3/4
f 412/3/4 326/3/4 407/3/4
f 398/4/4 384/4/4 374/4/4
f 398/4/4 374/4/4 393/4/4
f 163/1/1 168/1/1 157/1/1
f 163/1/1 157/1/1 154/1/1
f 49/2/1 53/2/1 42/2/1
f 49/2/1 42/2/1 40/2/1
f 158/1/2 160/4/2 103/4/2
f 158/1/2 103/4/2 106/1/2
f 189/1/2 192/4/2 182/4/2
f 189/1/2 182/4/2 180/1/2
f 164/4/5 161/1/5 153/1/5
f 164/4/5 153/1/5 155/4/5
f 67/2/1 61/2/1 21/2/1
f 67/2/1 21/2/1 36/2/1
f 271/3/4 251/3/4 262/3/4
f 271/3/4 262/3/4 281/3/4
f 265/3/4 229/3/4 242/3/4
f 265/3/4 242/3/4 269/3/4
